<svg xmlns="http://www.w3.org/2000/svg" viewBox="0 0 571.34 421.49"><defs><style>.cls-1{fill:#fff;}</style></defs><title>ico_check</title><g id="레이어_2" data-name="레이어 2"><g id="Layer_1" data-name="Layer 1"><path class="cls-1" d="M199,400.49h0a28.15,28.15,0,0,1-19.9-8.25L29.24,242.38a28.15,28.15,0,0,1,39.81-39.8L199,332.53,502.29,29.25a28.15,28.15,0,1,1,39.81,39.8L218.91,392.24A28.16,28.16,0,0,1,199,400.49Z"/><path class="cls-1" d="M522.19,21A28.15,28.15,0,0,1,542.1,69.05L218.91,392.24a28.14,28.14,0,0,1-39.81,0L29.24,242.38a28.15,28.15,0,1,1,39.81-39.8L199,332.53,502.29,29.25A28.05,28.05,0,0,1,522.19,21m0-21a48.79,48.79,0,0,0-34.75,14.4L199,302.83,83.9,187.73A49.15,49.15,0,0,0,0,222.48a48.79,48.79,0,0,0,14.4,34.75L164.25,407.09a49.14,49.14,0,0,0,69.5,0L557,83.9A49.15,49.15,0,0,0,522.19,0Z"/></g></g></svg>